# xmcd CD database file
#
# Track frame offsets:
#	182
#	12600
#	27787
#	45382
#	60185
#	76212
#	88875
#	102627
#	120740
#	139537
#
# Disc length: 2101 seconds
#
# Revision: 1
# Processed by: cddbd v1.5.2PL0 Copyright (c) Steve Scherf et al.
# Submitted via: CDex 1.60beta1
#
DISCID=7808330a
DTITLE=Brady Seals - Brady Seals
DYEAR=1998
DGENRE=Country
TTITLE0=Whole Lotta Hurt
TTITLE1=Country As A Boy Can Be
TTITLE2=The Best is Yet To Come
TTITLE3=Summer Night Lovin' You
TTITLE4=I Fell
TTITLE5=Love You Too Much
TTITLE6=You're My Kind Of Woman
TTITLE7=All My Devotion
TTITLE8=Kickin' And Screamin' 
TTITLE9=I Get High Lovin' You
EXTD=YEAR: 1998
EXTT0=
EXTT1=
EXTT2=
EXTT3=
EXTT4=
EXTT5=
EXTT6=
EXTT7=
EXTT8=
EXTT9=
PLAYORDER=
